%TF.GenerationSoftware,KiCad,Pcbnew,8.0.6*%
%TF.CreationDate,2025-11-11T21:27:36-08:00*%
%TF.ProjectId,I2S_Dac,4932535f-4461-4632-9e6b-696361645f70,rev?*%
%TF.SameCoordinates,Original*%
%TF.FileFunction,Copper,L2,Bot*%
%TF.FilePolarity,Positive*%
%FSLAX46Y46*%
G04 Gerber Fmt 4.6, Leading zero omitted, Abs format (unit mm)*
G04 Created by KiCad (PCBNEW 8.0.6) date 2025-11-11 21:27:36*
%MOMM*%
%LPD*%
G01*
G04 APERTURE LIST*
%TA.AperFunction,ComponentPad*%
%ADD10R,2.600000X2.600000*%
%TD*%
%TA.AperFunction,ComponentPad*%
%ADD11C,2.600000*%
%TD*%
%TA.AperFunction,ViaPad*%
%ADD12C,0.600000*%
%TD*%
G04 APERTURE END LIST*
D10*
%TO.P,J1,1,Pin_1*%
%TO.N,/I2SWordClock*%
X147500000Y-90500000D03*
D11*
%TO.P,J1,2,Pin_2*%
%TO.N,/I2SSerialClock*%
X147500000Y-85500000D03*
%TO.P,J1,3,Pin_3*%
%TO.N,/I2SBitClock*%
X147500000Y-80500000D03*
%TO.P,J1,4,Pin_4*%
%TO.N,/I2SDataOut*%
X147500000Y-75500000D03*
%TD*%
D10*
%TO.P,J3,1,Pin_1*%
%TO.N,/RightLineOutput*%
X104695000Y-81500000D03*
D11*
%TO.P,J3,2,Pin_2*%
%TO.N,GND*%
X104695000Y-86500000D03*
%TD*%
D10*
%TO.P,J2,1,Pin_1*%
%TO.N,/LeftLineOutput*%
X104500000Y-63500000D03*
D11*
%TO.P,J2,2,Pin_2*%
%TO.N,GND*%
X104500000Y-68500000D03*
%TD*%
D10*
%TO.P,J4,1,Pin_1*%
%TO.N,GND*%
X147500000Y-68000000D03*
D11*
%TO.P,J4,2,Pin_2*%
%TO.N,/CPVDD*%
X147500000Y-63000000D03*
%TD*%
D12*
%TO.N,GND*%
X141000000Y-74000000D03*
X132000000Y-69000000D03*
X150000000Y-68000000D03*
X116000000Y-78000000D03*
X132246133Y-74725003D03*
X132246133Y-76675002D03*
X124753870Y-75375002D03*
X121574997Y-79925003D03*
X122000000Y-85000000D03*
X121000000Y-65000000D03*
X131000000Y-65000000D03*
X104000000Y-89000000D03*
X104000000Y-71000000D03*
X134000000Y-81000000D03*
%TD*%
%TA.AperFunction,Conductor*%
%TO.N,GND*%
G36*
X161561539Y-53401185D02*
G01*
X161607294Y-53453989D01*
X161618500Y-53505500D01*
X161618500Y-99494500D01*
X161598815Y-99561539D01*
X161546011Y-99607294D01*
X161494500Y-99618500D01*
X91505500Y-99618500D01*
X91438461Y-99598815D01*
X91392706Y-99546011D01*
X91381500Y-99494500D01*
X91381500Y-96648388D01*
X93772500Y-96648388D01*
X93772500Y-96841611D01*
X93802725Y-97032441D01*
X93862429Y-97216194D01*
X93950147Y-97388349D01*
X94063715Y-97544663D01*
X94200336Y-97681284D01*
X94356650Y-97794852D01*
X94528805Y-97882570D01*
X94620681Y-97912422D01*
X94712560Y-97942275D01*
X94800943Y-97956273D01*
X94903389Y-97972500D01*
X94903394Y-97972500D01*
X95096611Y-97972500D01*
X95189123Y-97957846D01*
X95287440Y-97942275D01*
X95471197Y-97882569D01*
X95643350Y-97794852D01*
X95799663Y-97681285D01*
X95936285Y-97544663D01*
X96049852Y-97388350D01*
X96137569Y-97216197D01*
X96197275Y-97032440D01*
X96212846Y-96934123D01*
X96227500Y-96841611D01*
X96227500Y-96648388D01*
X96209916Y-96537373D01*
X96197275Y-96457560D01*
X96179674Y-96403388D01*
X157772500Y-96403388D01*
X157772500Y-96596611D01*
X157802725Y-96787441D01*
X157862429Y-96971194D01*
X157950147Y-97143349D01*
X158063715Y-97299663D01*
X158200336Y-97436284D01*
X158356650Y-97549852D01*
X158528805Y-97637570D01*
X158620681Y-97667422D01*
X158712560Y-97697275D01*
X158800943Y-97711273D01*
X158903389Y-97727500D01*
X158903394Y-97727500D01*
X159096611Y-97727500D01*
X159189123Y-97712846D01*
X159287440Y-97697275D01*
X159471197Y-97637569D01*
X159643350Y-97549852D01*
X159799663Y-97436285D01*
X159936285Y-97299663D01*
X160049852Y-97143350D01*
X160137569Y-96971197D01*
X160197275Y-96787440D01*
X160219299Y-96648388D01*
X160227500Y-96596611D01*
X160227500Y-96403388D01*
X160206975Y-96273803D01*
X160197275Y-96212560D01*
X160137569Y-96028803D01*
X160049852Y-95856650D01*
X159936285Y-95700337D01*
X159799663Y-95563715D01*
X159643349Y-95450147D01*
X159471194Y-95362429D01*
X159287441Y-95302725D01*
X159096611Y-95272500D01*
X159096606Y-95272500D01*
X158903394Y-95272500D01*
X158903389Y-95272500D01*
X158712558Y-95302725D01*
X158528805Y-95362429D01*
X158356650Y-95450147D01*
X158200336Y-95563715D01*
X158063715Y-95700336D01*
X157950147Y-95856650D01*
X157862429Y-96028805D01*
X157802725Y-96212558D01*
X157772500Y-96403388D01*
X96179674Y-96403388D01*
X96137569Y-96273803D01*
X96049852Y-96101650D01*
X95936285Y-95945337D01*
X95799663Y-95808715D01*
X95643350Y-95695148D01*
X95643351Y-95695148D01*
X95643349Y-95695147D01*
X95471194Y-95607429D01*
X95287441Y-95547725D01*
X95096611Y-95517500D01*
X95096606Y-95517500D01*
X94903394Y-95517500D01*
X94903389Y-95517500D01*
X94712558Y-95547725D01*
X94528805Y-95607429D01*
X94356650Y-95695147D01*
X94200336Y-95808715D01*
X94063715Y-95945336D01*
X93950147Y-96101650D01*
X93862429Y-96273805D01*
X93802725Y-96457558D01*
X93772500Y-96648388D01*
X91381500Y-96648388D01*
X91381500Y-89152135D01*
X145699500Y-89152135D01*
X145699500Y-91847870D01*
X145699501Y-91847876D01*
X145705908Y-91907483D01*
X145756202Y-92042328D01*
X145756206Y-92042335D01*
X145842452Y-92157544D01*
X145842455Y-92157547D01*
X145957664Y-92243793D01*
X145957671Y-92243797D01*
X146092517Y-92294091D01*
X146092516Y-92294091D01*
X146099444Y-92294835D01*
X146152127Y-92300500D01*
X148847872Y-92300499D01*
X148907483Y-92294091D01*
X149042331Y-92243796D01*
X149157546Y-92157546D01*
X149243796Y-92042331D01*
X149294091Y-91907483D01*
X149300500Y-91847873D01*
X149300499Y-89152128D01*
X149294091Y-89092517D01*
X149243796Y-88957669D01*
X149243795Y-88957668D01*
X149243793Y-88957664D01*
X149157547Y-88842455D01*
X149157544Y-88842452D01*
X149042335Y-88756206D01*
X149042328Y-88756202D01*
X148907482Y-88705908D01*
X148907483Y-88705908D01*
X148847883Y-88699501D01*
X148847881Y-88699500D01*
X148847873Y-88699500D01*
X148847864Y-88699500D01*
X146152129Y-88699500D01*
X146152123Y-88699501D01*
X146092516Y-88705908D01*
X145957671Y-88756202D01*
X145957664Y-88756206D01*
X145842455Y-88842452D01*
X145842452Y-88842455D01*
X145756206Y-88957664D01*
X145756202Y-88957671D01*
X145705908Y-89092517D01*
X145699501Y-89152116D01*
X145699501Y-89152123D01*
X145699500Y-89152135D01*
X91381500Y-89152135D01*
X91381500Y-86499995D01*
X102889953Y-86499995D01*
X102889953Y-86500004D01*
X102910113Y-86769026D01*
X102910113Y-86769028D01*
X102970142Y-87032033D01*
X102970148Y-87032052D01*
X103068709Y-87283181D01*
X103068708Y-87283181D01*
X103203602Y-87516822D01*
X103257294Y-87584151D01*
X104093957Y-86747487D01*
X104118978Y-86807890D01*
X104190112Y-86914351D01*
X104280649Y-87004888D01*
X104387110Y-87076022D01*
X104447510Y-87101041D01*
X103609848Y-87938702D01*
X103792483Y-88063220D01*
X103792485Y-88063221D01*
X104035539Y-88180269D01*
X104035537Y-88180269D01*
X104293337Y-88259790D01*
X104293343Y-88259792D01*
X104560101Y-88299999D01*
X104560110Y-88300000D01*
X104829890Y-88300000D01*
X104829898Y-88299999D01*
X105096656Y-88259792D01*
X105096662Y-88259790D01*
X105354461Y-88180269D01*
X105597521Y-88063218D01*
X105780150Y-87938702D01*
X104942488Y-87101041D01*
X105002890Y-87076022D01*
X105109351Y-87004888D01*
X105199888Y-86914351D01*
X105271022Y-86807890D01*
X105296041Y-86747489D01*
X106132703Y-87584151D01*
X106132704Y-87584150D01*
X106186393Y-87516828D01*
X106186400Y-87516817D01*
X106321290Y-87283181D01*
X106419851Y-87032052D01*
X106419857Y-87032033D01*
X106479886Y-86769028D01*
X106479886Y-86769026D01*
X106500047Y-86500004D01*
X106500047Y-86499995D01*
X106479886Y-86230973D01*
X106479886Y-86230971D01*
X106419857Y-85967966D01*
X106419851Y-85967947D01*
X106321290Y-85716818D01*
X106321291Y-85716818D01*
X106196107Y-85499995D01*
X145694451Y-85499995D01*
X145694451Y-85500004D01*
X145714616Y-85769101D01*
X145760006Y-85967966D01*
X145774666Y-86032195D01*
X145873257Y-86283398D01*
X146008185Y-86517102D01*
X146144080Y-86687509D01*
X146176442Y-86728089D01*
X146262448Y-86807890D01*
X146374259Y-86911635D01*
X146597226Y-87063651D01*
X146840359Y-87180738D01*
X147098228Y-87260280D01*
X147098229Y-87260280D01*
X147098232Y-87260281D01*
X147365063Y-87300499D01*
X147365068Y-87300499D01*
X147365071Y-87300500D01*
X147365072Y-87300500D01*
X147634928Y-87300500D01*
X147634929Y-87300500D01*
X147634936Y-87300499D01*
X147901767Y-87260281D01*
X147901768Y-87260280D01*
X147901772Y-87260280D01*
X148159641Y-87180738D01*
X148402775Y-87063651D01*
X148625741Y-86911635D01*
X148823561Y-86728085D01*
X148991815Y-86517102D01*
X149126743Y-86283398D01*
X149225334Y-86032195D01*
X149285383Y-85769103D01*
X149305549Y-85500000D01*
X149304288Y-85483177D01*
X149285383Y-85230898D01*
X149285383Y-85230897D01*
X149225334Y-84967805D01*
X149126743Y-84716602D01*
X148991815Y-84482898D01*
X148823561Y-84271915D01*
X148823560Y-84271914D01*
X148823557Y-84271910D01*
X148625741Y-84088365D01*
X148402775Y-83936349D01*
X148402769Y-83936346D01*
X148402768Y-83936345D01*
X148402767Y-83936344D01*
X148159643Y-83819263D01*
X148159645Y-83819263D01*
X147901773Y-83739720D01*
X147901767Y-83739718D01*
X147634936Y-83699500D01*
X147634929Y-83699500D01*
X147365071Y-83699500D01*
X147365063Y-83699500D01*
X147098232Y-83739718D01*
X147098226Y-83739720D01*
X146840358Y-83819262D01*
X146597230Y-83936346D01*
X146374258Y-84088365D01*
X146176442Y-84271910D01*
X146008185Y-84482898D01*
X145873258Y-84716599D01*
X145873256Y-84716603D01*
X145774666Y-84967804D01*
X145774664Y-84967811D01*
X145714616Y-85230898D01*
X145694451Y-85499995D01*
X106196107Y-85499995D01*
X106186397Y-85483177D01*
X106132704Y-85415847D01*
X105296041Y-86252510D01*
X105271022Y-86192110D01*
X105199888Y-86085649D01*
X105109351Y-85995112D01*
X105002890Y-85923978D01*
X104942488Y-85898958D01*
X105780150Y-85061296D01*
X105597517Y-84936779D01*
X105597516Y-84936778D01*
X105354460Y-84819730D01*
X105354462Y-84819730D01*
X105096662Y-84740209D01*
X105096656Y-84740207D01*
X104829898Y-84700000D01*
X104560101Y-84700000D01*
X104293343Y-84740207D01*
X104293337Y-84740209D01*
X104035538Y-84819730D01*
X103792485Y-84936778D01*
X103792476Y-84936783D01*
X103609848Y-85061296D01*
X104447511Y-85898958D01*
X104387110Y-85923978D01*
X104280649Y-85995112D01*
X104190112Y-86085649D01*
X104118978Y-86192110D01*
X104093958Y-86252511D01*
X103257295Y-85415848D01*
X103203600Y-85483180D01*
X103068709Y-85716818D01*
X102970148Y-85967947D01*
X102970142Y-85967966D01*
X102910113Y-86230971D01*
X102910113Y-86230973D01*
X102889953Y-86499995D01*
X91381500Y-86499995D01*
X91381500Y-80152135D01*
X102894500Y-80152135D01*
X102894500Y-82847870D01*
X102894501Y-82847876D01*
X102900908Y-82907483D01*
X102951202Y-83042328D01*
X102951206Y-83042335D01*
X103037452Y-83157544D01*
X103037455Y-83157547D01*
X103152664Y-83243793D01*
X103152671Y-83243797D01*
X103287517Y-83294091D01*
X103287516Y-83294091D01*
X103294444Y-83294835D01*
X103347127Y-83300500D01*
X106042872Y-83300499D01*
X106102483Y-83294091D01*
X106237331Y-83243796D01*
X106352546Y-83157546D01*
X106438796Y-83042331D01*
X106489091Y-82907483D01*
X106495500Y-82847873D01*
X106495499Y-80499995D01*
X145694451Y-80499995D01*
X145694451Y-80500004D01*
X145714616Y-80769101D01*
X145774664Y-81032188D01*
X145774666Y-81032195D01*
X145873257Y-81283398D01*
X146008185Y-81517102D01*
X146144080Y-81687509D01*
X146176442Y-81728089D01*
X146363183Y-81901358D01*
X146374259Y-81911635D01*
X146597226Y-82063651D01*
X146840359Y-82180738D01*
X147098228Y-82260280D01*
X147098229Y-82260280D01*
X147098232Y-82260281D01*
X147365063Y-82300499D01*
X147365068Y-82300499D01*
X147365071Y-82300500D01*
X147365072Y-82300500D01*
X147634928Y-82300500D01*
X147634929Y-82300500D01*
X147634936Y-82300499D01*
X147901767Y-82260281D01*
X147901768Y-82260280D01*
X147901772Y-82260280D01*
X148159641Y-82180738D01*
X148402775Y-82063651D01*
X148625741Y-81911635D01*
X148823561Y-81728085D01*
X148991815Y-81517102D01*
X149126743Y-81283398D01*
X149225334Y-81032195D01*
X149285383Y-80769103D01*
X149305549Y-80500000D01*
X149285383Y-80230897D01*
X149225334Y-79967805D01*
X149126743Y-79716602D01*
X148991815Y-79482898D01*
X148823561Y-79271915D01*
X148823560Y-79271914D01*
X148823557Y-79271910D01*
X148625741Y-79088365D01*
X148402775Y-78936349D01*
X148402769Y-78936346D01*
X148402768Y-78936345D01*
X148402767Y-78936344D01*
X148159643Y-78819263D01*
X148159645Y-78819263D01*
X147901773Y-78739720D01*
X147901767Y-78739718D01*
X147634936Y-78699500D01*
X147634929Y-78699500D01*
X147365071Y-78699500D01*
X147365063Y-78699500D01*
X147098232Y-78739718D01*
X147098226Y-78739720D01*
X146840358Y-78819262D01*
X146597230Y-78936346D01*
X146374258Y-79088365D01*
X146176442Y-79271910D01*
X146008185Y-79482898D01*
X145873258Y-79716599D01*
X145873256Y-79716603D01*
X145774666Y-79967804D01*
X145774664Y-79967811D01*
X145714616Y-80230898D01*
X145694451Y-80499995D01*
X106495499Y-80499995D01*
X106495499Y-80152128D01*
X106489091Y-80092517D01*
X106442576Y-79967805D01*
X106438797Y-79957671D01*
X106438793Y-79957664D01*
X106352547Y-79842455D01*
X106352544Y-79842452D01*
X106237335Y-79756206D01*
X106237328Y-79756202D01*
X106102482Y-79705908D01*
X106102483Y-79705908D01*
X106042883Y-79699501D01*
X106042881Y-79699500D01*
X106042873Y-79699500D01*
X106042864Y-79699500D01*
X103347129Y-79699500D01*
X103347123Y-79699501D01*
X103287516Y-79705908D01*
X103152671Y-79756202D01*
X103152664Y-79756206D01*
X103037455Y-79842452D01*
X103037452Y-79842455D01*
X102951206Y-79957664D01*
X102951202Y-79957671D01*
X102900908Y-80092517D01*
X102894501Y-80152116D01*
X102894501Y-80152123D01*
X102894500Y-80152135D01*
X91381500Y-80152135D01*
X91381500Y-75499995D01*
X145694451Y-75499995D01*
X145694451Y-75500004D01*
X145714616Y-75769101D01*
X145774664Y-76032188D01*
X145774666Y-76032195D01*
X145873257Y-76283398D01*
X146008185Y-76517102D01*
X146144080Y-76687509D01*
X146176442Y-76728089D01*
X146363183Y-76901358D01*
X146374259Y-76911635D01*
X146597226Y-77063651D01*
X146840359Y-77180738D01*
X147098228Y-77260280D01*
X147098229Y-77260280D01*
X147098232Y-77260281D01*
X147365063Y-77300499D01*
X147365068Y-77300499D01*
X147365071Y-77300500D01*
X147365072Y-77300500D01*
X147634928Y-77300500D01*
X147634929Y-77300500D01*
X147634936Y-77300499D01*
X147901767Y-77260281D01*
X147901768Y-77260280D01*
X147901772Y-77260280D01*
X148159641Y-77180738D01*
X148402775Y-77063651D01*
X148625741Y-76911635D01*
X148823561Y-76728085D01*
X148991815Y-76517102D01*
X149126743Y-76283398D01*
X149225334Y-76032195D01*
X149285383Y-75769103D01*
X149305549Y-75500000D01*
X149285383Y-75230897D01*
X149225334Y-74967805D01*
X149126743Y-74716602D01*
X148991815Y-74482898D01*
X148823561Y-74271915D01*
X148823560Y-74271914D01*
X148823557Y-74271910D01*
X148625741Y-74088365D01*
X148402775Y-73936349D01*
X148402769Y-73936346D01*
X148402768Y-73936345D01*
X148402767Y-73936344D01*
X148159643Y-73819263D01*
X148159645Y-73819263D01*
X147901773Y-73739720D01*
X147901767Y-73739718D01*
X147634936Y-73699500D01*
X147634929Y-73699500D01*
X147365071Y-73699500D01*
X147365063Y-73699500D01*
X147098232Y-73739718D01*
X147098226Y-73739720D01*
X146840358Y-73819262D01*
X146597230Y-73936346D01*
X146374258Y-74088365D01*
X146176442Y-74271910D01*
X146008185Y-74482898D01*
X145873258Y-74716599D01*
X145873256Y-74716603D01*
X145774666Y-74967804D01*
X145774664Y-74967811D01*
X145714616Y-75230898D01*
X145694451Y-75499995D01*
X91381500Y-75499995D01*
X91381500Y-68499995D01*
X102694953Y-68499995D01*
X102694953Y-68500004D01*
X102715113Y-68769026D01*
X102715113Y-68769028D01*
X102775142Y-69032033D01*
X102775148Y-69032052D01*
X102873709Y-69283181D01*
X102873708Y-69283181D01*
X103008602Y-69516822D01*
X103062294Y-69584151D01*
X103898957Y-68747487D01*
X103923978Y-68807890D01*
X103995112Y-68914351D01*
X104085649Y-69004888D01*
X104192110Y-69076022D01*
X104252510Y-69101041D01*
X103414848Y-69938702D01*
X103597483Y-70063220D01*
X103597485Y-70063221D01*
X103840539Y-70180269D01*
X103840537Y-70180269D01*
X104098337Y-70259790D01*
X104098343Y-70259792D01*
X104365101Y-70299999D01*
X104365110Y-70300000D01*
X104634890Y-70300000D01*
X104634898Y-70299999D01*
X104901656Y-70259792D01*
X104901662Y-70259790D01*
X105159461Y-70180269D01*
X105402521Y-70063218D01*
X105585150Y-69938702D01*
X104747488Y-69101041D01*
X104807890Y-69076022D01*
X104914351Y-69004888D01*
X105004888Y-68914351D01*
X105076022Y-68807890D01*
X105101041Y-68747488D01*
X105937703Y-69584151D01*
X105937704Y-69584150D01*
X105991393Y-69516828D01*
X105991400Y-69516817D01*
X106126290Y-69283181D01*
X106224851Y-69032052D01*
X106224857Y-69032033D01*
X106284886Y-68769028D01*
X106284886Y-68769026D01*
X106305047Y-68500004D01*
X106305047Y-68499995D01*
X106284886Y-68230973D01*
X106284886Y-68230971D01*
X106224857Y-67967966D01*
X106224851Y-67967947D01*
X106126290Y-67716818D01*
X106126291Y-67716818D01*
X105991397Y-67483177D01*
X105937704Y-67415847D01*
X105101041Y-68252510D01*
X105076022Y-68192110D01*
X105004888Y-68085649D01*
X104914351Y-67995112D01*
X104807890Y-67923978D01*
X104747488Y-67898958D01*
X105585150Y-67061296D01*
X105402517Y-66936779D01*
X105402516Y-66936778D01*
X105159460Y-66819730D01*
X105159462Y-66819730D01*
X104901662Y-66740209D01*
X104901656Y-66740207D01*
X104634898Y-66700000D01*
X104365101Y-66700000D01*
X104098343Y-66740207D01*
X104098337Y-66740209D01*
X103840538Y-66819730D01*
X103597485Y-66936778D01*
X103597476Y-66936783D01*
X103414848Y-67061296D01*
X104252511Y-67898958D01*
X104192110Y-67923978D01*
X104085649Y-67995112D01*
X103995112Y-68085649D01*
X103923978Y-68192110D01*
X103898958Y-68252511D01*
X103062295Y-67415848D01*
X103008600Y-67483180D01*
X102873709Y-67716818D01*
X102775148Y-67967947D01*
X102775142Y-67967966D01*
X102715113Y-68230971D01*
X102715113Y-68230973D01*
X102694953Y-68499995D01*
X91381500Y-68499995D01*
X91381500Y-66652155D01*
X145700000Y-66652155D01*
X145700000Y-67750000D01*
X146899999Y-67750000D01*
X146874979Y-67810402D01*
X146850000Y-67935981D01*
X146850000Y-68064019D01*
X146874979Y-68189598D01*
X146899999Y-68250000D01*
X145700000Y-68250000D01*
X145700000Y-69347844D01*
X145706401Y-69407372D01*
X145706403Y-69407379D01*
X145756645Y-69542086D01*
X145756649Y-69542093D01*
X145842809Y-69657187D01*
X145842812Y-69657190D01*
X145957906Y-69743350D01*
X145957913Y-69743354D01*
X146092620Y-69793596D01*
X146092627Y-69793598D01*
X146152155Y-69799999D01*
X146152172Y-69800000D01*
X147250000Y-69800000D01*
X147250000Y-68600001D01*
X147310402Y-68625021D01*
X147435981Y-68650000D01*
X147564019Y-68650000D01*
X147689598Y-68625021D01*
X147750000Y-68600001D01*
X147750000Y-69800000D01*
X148847828Y-69800000D01*
X148847844Y-69799999D01*
X148907372Y-69793598D01*
X148907379Y-69793596D01*
X149042086Y-69743354D01*
X149042093Y-69743350D01*
X149157187Y-69657190D01*
X149157190Y-69657187D01*
X149243350Y-69542093D01*
X149243354Y-69542086D01*
X149293596Y-69407379D01*
X149293598Y-69407372D01*
X149299999Y-69347844D01*
X149300000Y-69347827D01*
X149300000Y-68250000D01*
X148100001Y-68250000D01*
X148125021Y-68189598D01*
X148150000Y-68064019D01*
X148150000Y-67935981D01*
X148125021Y-67810402D01*
X148100001Y-67750000D01*
X149300000Y-67750000D01*
X149300000Y-66652172D01*
X149299999Y-66652155D01*
X149293598Y-66592627D01*
X149293596Y-66592620D01*
X149243354Y-66457913D01*
X149243350Y-66457906D01*
X149157190Y-66342812D01*
X149157187Y-66342809D01*
X149042093Y-66256649D01*
X149042086Y-66256645D01*
X148907379Y-66206403D01*
X148907372Y-66206401D01*
X148847844Y-66200000D01*
X147750000Y-66200000D01*
X147750000Y-67399998D01*
X147689598Y-67374979D01*
X147564019Y-67350000D01*
X147435981Y-67350000D01*
X147310402Y-67374979D01*
X147250000Y-67399998D01*
X147250000Y-66200000D01*
X146152155Y-66200000D01*
X146092627Y-66206401D01*
X146092620Y-66206403D01*
X145957913Y-66256645D01*
X145957906Y-66256649D01*
X145842812Y-66342809D01*
X145842809Y-66342812D01*
X145756649Y-66457906D01*
X145756645Y-66457913D01*
X145706403Y-66592620D01*
X145706401Y-66592627D01*
X145700000Y-66652155D01*
X91381500Y-66652155D01*
X91381500Y-62152135D01*
X102699500Y-62152135D01*
X102699500Y-64847870D01*
X102699501Y-64847876D01*
X102705908Y-64907483D01*
X102756202Y-65042328D01*
X102756206Y-65042335D01*
X102842452Y-65157544D01*
X102842455Y-65157547D01*
X102957664Y-65243793D01*
X102957671Y-65243797D01*
X103092517Y-65294091D01*
X103092516Y-65294091D01*
X103099444Y-65294835D01*
X103152127Y-65300500D01*
X105847872Y-65300499D01*
X105907483Y-65294091D01*
X106042331Y-65243796D01*
X106157546Y-65157546D01*
X106243796Y-65042331D01*
X106294091Y-64907483D01*
X106300500Y-64847873D01*
X106300499Y-62999995D01*
X145694451Y-62999995D01*
X145694451Y-63000004D01*
X145714616Y-63269101D01*
X145774664Y-63532188D01*
X145774666Y-63532195D01*
X145873257Y-63783398D01*
X146008185Y-64017102D01*
X146144080Y-64187509D01*
X146176442Y-64228089D01*
X146363183Y-64401358D01*
X146374259Y-64411635D01*
X146597226Y-64563651D01*
X146840359Y-64680738D01*
X147098228Y-64760280D01*
X147098229Y-64760280D01*
X147098232Y-64760281D01*
X147365063Y-64800499D01*
X147365068Y-64800499D01*
X147365071Y-64800500D01*
X147365072Y-64800500D01*
X147634928Y-64800500D01*
X147634929Y-64800500D01*
X147634936Y-64800499D01*
X147901767Y-64760281D01*
X147901768Y-64760280D01*
X147901772Y-64760280D01*
X148159641Y-64680738D01*
X148402775Y-64563651D01*
X148625741Y-64411635D01*
X148823561Y-64228085D01*
X148991815Y-64017102D01*
X149126743Y-63783398D01*
X149225334Y-63532195D01*
X149285383Y-63269103D01*
X149305549Y-63000000D01*
X149285383Y-62730897D01*
X149225334Y-62467805D01*
X149126743Y-62216602D01*
X148991815Y-61982898D01*
X148823561Y-61771915D01*
X148823560Y-61771914D01*
X148823557Y-61771910D01*
X148625741Y-61588365D01*
X148402775Y-61436349D01*
X148402769Y-61436346D01*
X148402768Y-61436345D01*
X148402767Y-61436344D01*
X148159643Y-61319263D01*
X148159645Y-61319263D01*
X147901773Y-61239720D01*
X147901767Y-61239718D01*
X147634936Y-61199500D01*
X147634929Y-61199500D01*
X147365071Y-61199500D01*
X147365063Y-61199500D01*
X147098232Y-61239718D01*
X147098226Y-61239720D01*
X146840358Y-61319262D01*
X146597230Y-61436346D01*
X146374258Y-61588365D01*
X146176442Y-61771910D01*
X146008185Y-61982898D01*
X145873258Y-62216599D01*
X145873256Y-62216603D01*
X145774666Y-62467804D01*
X145774664Y-62467811D01*
X145714616Y-62730898D01*
X145694451Y-62999995D01*
X106300499Y-62999995D01*
X106300499Y-62152128D01*
X106294091Y-62092517D01*
X106243796Y-61957669D01*
X106243795Y-61957668D01*
X106243793Y-61957664D01*
X106157547Y-61842455D01*
X106157544Y-61842452D01*
X106042335Y-61756206D01*
X106042328Y-61756202D01*
X105907482Y-61705908D01*
X105907483Y-61705908D01*
X105847883Y-61699501D01*
X105847881Y-61699500D01*
X105847873Y-61699500D01*
X105847864Y-61699500D01*
X103152129Y-61699500D01*
X103152123Y-61699501D01*
X103092516Y-61705908D01*
X102957671Y-61756202D01*
X102957664Y-61756206D01*
X102842455Y-61842452D01*
X102842452Y-61842455D01*
X102756206Y-61957664D01*
X102756202Y-61957671D01*
X102705908Y-62092517D01*
X102699501Y-62152116D01*
X102699501Y-62152123D01*
X102699500Y-62152135D01*
X91381500Y-62152135D01*
X91381500Y-55903388D01*
X93772500Y-55903388D01*
X93772500Y-56096611D01*
X93802725Y-56287441D01*
X93862429Y-56471194D01*
X93950147Y-56643349D01*
X94063715Y-56799663D01*
X94200336Y-56936284D01*
X94356650Y-57049852D01*
X94528805Y-57137570D01*
X94620681Y-57167422D01*
X94712560Y-57197275D01*
X94800943Y-57211273D01*
X94903389Y-57227500D01*
X94903394Y-57227500D01*
X95096611Y-57227500D01*
X95189123Y-57212846D01*
X95287440Y-57197275D01*
X95471197Y-57137569D01*
X95643350Y-57049852D01*
X95799663Y-56936285D01*
X95936285Y-56799663D01*
X96049852Y-56643350D01*
X96137569Y-56471197D01*
X96197275Y-56287440D01*
X96212846Y-56189123D01*
X96227500Y-56096611D01*
X96227500Y-55903388D01*
X157772500Y-55903388D01*
X157772500Y-56096611D01*
X157802725Y-56287441D01*
X157862429Y-56471194D01*
X157950147Y-56643349D01*
X158063715Y-56799663D01*
X158200336Y-56936284D01*
X158356650Y-57049852D01*
X158528805Y-57137570D01*
X158620681Y-57167422D01*
X158712560Y-57197275D01*
X158800943Y-57211273D01*
X158903389Y-57227500D01*
X158903394Y-57227500D01*
X159096611Y-57227500D01*
X159189123Y-57212846D01*
X159287440Y-57197275D01*
X159471197Y-57137569D01*
X159643350Y-57049852D01*
X159799663Y-56936285D01*
X159936285Y-56799663D01*
X160049852Y-56643350D01*
X160137569Y-56471197D01*
X160197275Y-56287440D01*
X160212846Y-56189123D01*
X160227500Y-56096611D01*
X160227500Y-55903388D01*
X160209916Y-55792373D01*
X160197275Y-55712560D01*
X160137569Y-55528803D01*
X160049852Y-55356650D01*
X159936285Y-55200337D01*
X159799663Y-55063715D01*
X159643350Y-54950148D01*
X159643351Y-54950148D01*
X159643349Y-54950147D01*
X159471194Y-54862429D01*
X159287441Y-54802725D01*
X159096611Y-54772500D01*
X159096606Y-54772500D01*
X158903394Y-54772500D01*
X158903389Y-54772500D01*
X158712558Y-54802725D01*
X158528805Y-54862429D01*
X158356650Y-54950147D01*
X158200336Y-55063715D01*
X158063715Y-55200336D01*
X157950147Y-55356650D01*
X157862429Y-55528805D01*
X157802725Y-55712558D01*
X157772500Y-55903388D01*
X96227500Y-55903388D01*
X96209916Y-55792373D01*
X96197275Y-55712560D01*
X96137569Y-55528803D01*
X96049852Y-55356650D01*
X95936285Y-55200337D01*
X95799663Y-55063715D01*
X95643350Y-54950148D01*
X95643351Y-54950148D01*
X95643349Y-54950147D01*
X95471194Y-54862429D01*
X95287441Y-54802725D01*
X95096611Y-54772500D01*
X95096606Y-54772500D01*
X94903394Y-54772500D01*
X94903389Y-54772500D01*
X94712558Y-54802725D01*
X94528805Y-54862429D01*
X94356650Y-54950147D01*
X94200336Y-55063715D01*
X94063715Y-55200336D01*
X93950147Y-55356650D01*
X93862429Y-55528805D01*
X93802725Y-55712558D01*
X93772500Y-55903388D01*
X91381500Y-55903388D01*
X91381500Y-53505500D01*
X91401185Y-53438461D01*
X91453989Y-53392706D01*
X91505500Y-53381500D01*
X161494500Y-53381500D01*
X161561539Y-53401185D01*
G37*
%TD.AperFunction*%
%TD*%
M02*
