%TF.GenerationSoftware,KiCad,Pcbnew,8.0.6*%
%TF.CreationDate,2025-11-11T21:27:36-08:00*%
%TF.ProjectId,I2S_Dac,4932535f-4461-4632-9e6b-696361645f70,rev?*%
%TF.SameCoordinates,Original*%
%TF.FileFunction,Legend,Top*%
%TF.FilePolarity,Positive*%
%FSLAX46Y46*%
G04 Gerber Fmt 4.6, Leading zero omitted, Abs format (unit mm)*
G04 Created by KiCad (PCBNEW 8.0.6) date 2025-11-11 21:27:36*
%MOMM*%
%LPD*%
G01*
G04 APERTURE LIST*
%ADD10C,0.225000*%
%ADD11C,0.300000*%
%ADD12C,0.150000*%
%ADD13C,0.200000*%
%ADD14C,0.120000*%
G04 APERTURE END LIST*
D10*
X153304728Y-92723402D02*
X154804728Y-92509116D01*
X154804728Y-92509116D02*
X153733300Y-92337688D01*
X153733300Y-92337688D02*
X154804728Y-92166259D01*
X154804728Y-92166259D02*
X153304728Y-91951974D01*
X154804728Y-91223403D02*
X153304728Y-91223403D01*
X154733300Y-91223403D02*
X154804728Y-91309117D01*
X154804728Y-91309117D02*
X154804728Y-91480545D01*
X154804728Y-91480545D02*
X154733300Y-91566260D01*
X154733300Y-91566260D02*
X154661871Y-91609117D01*
X154661871Y-91609117D02*
X154519014Y-91651974D01*
X154519014Y-91651974D02*
X154090442Y-91651974D01*
X154090442Y-91651974D02*
X153947585Y-91609117D01*
X153947585Y-91609117D02*
X153876157Y-91566260D01*
X153876157Y-91566260D02*
X153804728Y-91480545D01*
X153804728Y-91480545D02*
X153804728Y-91309117D01*
X153804728Y-91309117D02*
X153876157Y-91223403D01*
X154661871Y-90280545D02*
X154733300Y-90323402D01*
X154733300Y-90323402D02*
X154804728Y-90451974D01*
X154804728Y-90451974D02*
X154804728Y-90537688D01*
X154804728Y-90537688D02*
X154733300Y-90666259D01*
X154733300Y-90666259D02*
X154590442Y-90751974D01*
X154590442Y-90751974D02*
X154447585Y-90794831D01*
X154447585Y-90794831D02*
X154161871Y-90837688D01*
X154161871Y-90837688D02*
X153947585Y-90837688D01*
X153947585Y-90837688D02*
X153661871Y-90794831D01*
X153661871Y-90794831D02*
X153519014Y-90751974D01*
X153519014Y-90751974D02*
X153376157Y-90666259D01*
X153376157Y-90666259D02*
X153304728Y-90537688D01*
X153304728Y-90537688D02*
X153304728Y-90451974D01*
X153304728Y-90451974D02*
X153376157Y-90323402D01*
X153376157Y-90323402D02*
X153447585Y-90280545D01*
X154804728Y-89894831D02*
X153304728Y-89894831D01*
X154804728Y-89380545D02*
X153947585Y-89766259D01*
X153304728Y-89380545D02*
X154161871Y-89894831D01*
X155304728Y-88094831D02*
X153161871Y-88094831D01*
X154733300Y-86809117D02*
X154804728Y-86680546D01*
X154804728Y-86680546D02*
X154804728Y-86466260D01*
X154804728Y-86466260D02*
X154733300Y-86380546D01*
X154733300Y-86380546D02*
X154661871Y-86337688D01*
X154661871Y-86337688D02*
X154519014Y-86294831D01*
X154519014Y-86294831D02*
X154376157Y-86294831D01*
X154376157Y-86294831D02*
X154233300Y-86337688D01*
X154233300Y-86337688D02*
X154161871Y-86380546D01*
X154161871Y-86380546D02*
X154090442Y-86466260D01*
X154090442Y-86466260D02*
X154019014Y-86637688D01*
X154019014Y-86637688D02*
X153947585Y-86723403D01*
X153947585Y-86723403D02*
X153876157Y-86766260D01*
X153876157Y-86766260D02*
X153733300Y-86809117D01*
X153733300Y-86809117D02*
X153590442Y-86809117D01*
X153590442Y-86809117D02*
X153447585Y-86766260D01*
X153447585Y-86766260D02*
X153376157Y-86723403D01*
X153376157Y-86723403D02*
X153304728Y-86637688D01*
X153304728Y-86637688D02*
X153304728Y-86423403D01*
X153304728Y-86423403D02*
X153376157Y-86294831D01*
X154661871Y-85394831D02*
X154733300Y-85437688D01*
X154733300Y-85437688D02*
X154804728Y-85566260D01*
X154804728Y-85566260D02*
X154804728Y-85651974D01*
X154804728Y-85651974D02*
X154733300Y-85780545D01*
X154733300Y-85780545D02*
X154590442Y-85866260D01*
X154590442Y-85866260D02*
X154447585Y-85909117D01*
X154447585Y-85909117D02*
X154161871Y-85951974D01*
X154161871Y-85951974D02*
X153947585Y-85951974D01*
X153947585Y-85951974D02*
X153661871Y-85909117D01*
X153661871Y-85909117D02*
X153519014Y-85866260D01*
X153519014Y-85866260D02*
X153376157Y-85780545D01*
X153376157Y-85780545D02*
X153304728Y-85651974D01*
X153304728Y-85651974D02*
X153304728Y-85566260D01*
X153304728Y-85566260D02*
X153376157Y-85437688D01*
X153376157Y-85437688D02*
X153447585Y-85394831D01*
X154804728Y-85009117D02*
X153304728Y-85009117D01*
X154804728Y-84494831D02*
X153947585Y-84880545D01*
X153304728Y-84494831D02*
X154161871Y-85009117D01*
X155304728Y-83209117D02*
X153161871Y-83209117D01*
X154019014Y-81580546D02*
X154090442Y-81451974D01*
X154090442Y-81451974D02*
X154161871Y-81409117D01*
X154161871Y-81409117D02*
X154304728Y-81366260D01*
X154304728Y-81366260D02*
X154519014Y-81366260D01*
X154519014Y-81366260D02*
X154661871Y-81409117D01*
X154661871Y-81409117D02*
X154733300Y-81451974D01*
X154733300Y-81451974D02*
X154804728Y-81537689D01*
X154804728Y-81537689D02*
X154804728Y-81880546D01*
X154804728Y-81880546D02*
X153304728Y-81880546D01*
X153304728Y-81880546D02*
X153304728Y-81580546D01*
X153304728Y-81580546D02*
X153376157Y-81494832D01*
X153376157Y-81494832D02*
X153447585Y-81451974D01*
X153447585Y-81451974D02*
X153590442Y-81409117D01*
X153590442Y-81409117D02*
X153733300Y-81409117D01*
X153733300Y-81409117D02*
X153876157Y-81451974D01*
X153876157Y-81451974D02*
X153947585Y-81494832D01*
X153947585Y-81494832D02*
X154019014Y-81580546D01*
X154019014Y-81580546D02*
X154019014Y-81880546D01*
X153804728Y-81109117D02*
X153804728Y-80766260D01*
X153304728Y-80980546D02*
X154590442Y-80980546D01*
X154590442Y-80980546D02*
X154733300Y-80937689D01*
X154733300Y-80937689D02*
X154804728Y-80851974D01*
X154804728Y-80851974D02*
X154804728Y-80766260D01*
X154661871Y-79951974D02*
X154733300Y-79994831D01*
X154733300Y-79994831D02*
X154804728Y-80123403D01*
X154804728Y-80123403D02*
X154804728Y-80209117D01*
X154804728Y-80209117D02*
X154733300Y-80337688D01*
X154733300Y-80337688D02*
X154590442Y-80423403D01*
X154590442Y-80423403D02*
X154447585Y-80466260D01*
X154447585Y-80466260D02*
X154161871Y-80509117D01*
X154161871Y-80509117D02*
X153947585Y-80509117D01*
X153947585Y-80509117D02*
X153661871Y-80466260D01*
X153661871Y-80466260D02*
X153519014Y-80423403D01*
X153519014Y-80423403D02*
X153376157Y-80337688D01*
X153376157Y-80337688D02*
X153304728Y-80209117D01*
X153304728Y-80209117D02*
X153304728Y-80123403D01*
X153304728Y-80123403D02*
X153376157Y-79994831D01*
X153376157Y-79994831D02*
X153447585Y-79951974D01*
X154804728Y-79566260D02*
X153304728Y-79566260D01*
X154804728Y-79051974D02*
X153947585Y-79437688D01*
X153304728Y-79051974D02*
X154161871Y-79566260D01*
X155304728Y-77766260D02*
X153161871Y-77766260D01*
X154804728Y-76437689D02*
X153304728Y-76437689D01*
X153304728Y-76437689D02*
X153304728Y-76223403D01*
X153304728Y-76223403D02*
X153376157Y-76094832D01*
X153376157Y-76094832D02*
X153519014Y-76009117D01*
X153519014Y-76009117D02*
X153661871Y-75966260D01*
X153661871Y-75966260D02*
X153947585Y-75923403D01*
X153947585Y-75923403D02*
X154161871Y-75923403D01*
X154161871Y-75923403D02*
X154447585Y-75966260D01*
X154447585Y-75966260D02*
X154590442Y-76009117D01*
X154590442Y-76009117D02*
X154733300Y-76094832D01*
X154733300Y-76094832D02*
X154804728Y-76223403D01*
X154804728Y-76223403D02*
X154804728Y-76437689D01*
X153804728Y-75666260D02*
X153804728Y-75323403D01*
X153304728Y-75537689D02*
X154590442Y-75537689D01*
X154590442Y-75537689D02*
X154733300Y-75494832D01*
X154733300Y-75494832D02*
X154804728Y-75409117D01*
X154804728Y-75409117D02*
X154804728Y-75323403D01*
X153304728Y-74851974D02*
X153304728Y-74680546D01*
X153304728Y-74680546D02*
X153376157Y-74594831D01*
X153376157Y-74594831D02*
X153519014Y-74509117D01*
X153519014Y-74509117D02*
X153804728Y-74466260D01*
X153804728Y-74466260D02*
X154304728Y-74466260D01*
X154304728Y-74466260D02*
X154590442Y-74509117D01*
X154590442Y-74509117D02*
X154733300Y-74594831D01*
X154733300Y-74594831D02*
X154804728Y-74680546D01*
X154804728Y-74680546D02*
X154804728Y-74851974D01*
X154804728Y-74851974D02*
X154733300Y-74937689D01*
X154733300Y-74937689D02*
X154590442Y-75023403D01*
X154590442Y-75023403D02*
X154304728Y-75066260D01*
X154304728Y-75066260D02*
X153804728Y-75066260D01*
X153804728Y-75066260D02*
X153519014Y-75023403D01*
X153519014Y-75023403D02*
X153376157Y-74937689D01*
X153376157Y-74937689D02*
X153304728Y-74851974D01*
X153304728Y-74209117D02*
X153304728Y-73694832D01*
X154804728Y-73951974D02*
X153304728Y-73951974D01*
D11*
X153814484Y-68445489D02*
X153814484Y-67302632D01*
X154385912Y-66588346D02*
X152885912Y-66588346D01*
X153385912Y-65874060D02*
X154385912Y-65874060D01*
X153528769Y-65874060D02*
X153457341Y-65802631D01*
X153457341Y-65802631D02*
X153385912Y-65659774D01*
X153385912Y-65659774D02*
X153385912Y-65445488D01*
X153385912Y-65445488D02*
X153457341Y-65302631D01*
X153457341Y-65302631D02*
X153600198Y-65231203D01*
X153600198Y-65231203D02*
X154385912Y-65231203D01*
X153814484Y-64516917D02*
X153814484Y-63374060D01*
X154385912Y-63945488D02*
X153243055Y-63945488D01*
X97770600Y-62554510D02*
X97770600Y-63697368D01*
X97199171Y-63125939D02*
X98342028Y-63125939D01*
X98699171Y-64697368D02*
X98699171Y-64983082D01*
X98699171Y-64983082D02*
X98627742Y-65125939D01*
X98627742Y-65125939D02*
X98484885Y-65268796D01*
X98484885Y-65268796D02*
X98199171Y-65340225D01*
X98199171Y-65340225D02*
X97699171Y-65340225D01*
X97699171Y-65340225D02*
X97413457Y-65268796D01*
X97413457Y-65268796D02*
X97270600Y-65125939D01*
X97270600Y-65125939D02*
X97199171Y-64983082D01*
X97199171Y-64983082D02*
X97199171Y-64697368D01*
X97199171Y-64697368D02*
X97270600Y-64554511D01*
X97270600Y-64554511D02*
X97413457Y-64411653D01*
X97413457Y-64411653D02*
X97699171Y-64340225D01*
X97699171Y-64340225D02*
X98199171Y-64340225D01*
X98199171Y-64340225D02*
X98484885Y-64411653D01*
X98484885Y-64411653D02*
X98627742Y-64554511D01*
X98627742Y-64554511D02*
X98699171Y-64697368D01*
X98199171Y-66625940D02*
X97199171Y-66625940D01*
X98199171Y-65983082D02*
X97413457Y-65983082D01*
X97413457Y-65983082D02*
X97270600Y-66054511D01*
X97270600Y-66054511D02*
X97199171Y-66197368D01*
X97199171Y-66197368D02*
X97199171Y-66411654D01*
X97199171Y-66411654D02*
X97270600Y-66554511D01*
X97270600Y-66554511D02*
X97342028Y-66625940D01*
X98199171Y-67125940D02*
X98199171Y-67697368D01*
X98699171Y-67340225D02*
X97413457Y-67340225D01*
X97413457Y-67340225D02*
X97270600Y-67411654D01*
X97270600Y-67411654D02*
X97199171Y-67554511D01*
X97199171Y-67554511D02*
X97199171Y-67697368D01*
X97770600Y-68197368D02*
X97770600Y-69340226D01*
X97770600Y-80554510D02*
X97770600Y-81697368D01*
X97199171Y-81125939D02*
X98342028Y-81125939D01*
X98699171Y-82697368D02*
X98699171Y-82983082D01*
X98699171Y-82983082D02*
X98627742Y-83125939D01*
X98627742Y-83125939D02*
X98484885Y-83268796D01*
X98484885Y-83268796D02*
X98199171Y-83340225D01*
X98199171Y-83340225D02*
X97699171Y-83340225D01*
X97699171Y-83340225D02*
X97413457Y-83268796D01*
X97413457Y-83268796D02*
X97270600Y-83125939D01*
X97270600Y-83125939D02*
X97199171Y-82983082D01*
X97199171Y-82983082D02*
X97199171Y-82697368D01*
X97199171Y-82697368D02*
X97270600Y-82554511D01*
X97270600Y-82554511D02*
X97413457Y-82411653D01*
X97413457Y-82411653D02*
X97699171Y-82340225D01*
X97699171Y-82340225D02*
X98199171Y-82340225D01*
X98199171Y-82340225D02*
X98484885Y-82411653D01*
X98484885Y-82411653D02*
X98627742Y-82554511D01*
X98627742Y-82554511D02*
X98699171Y-82697368D01*
X98199171Y-84625940D02*
X97199171Y-84625940D01*
X98199171Y-83983082D02*
X97413457Y-83983082D01*
X97413457Y-83983082D02*
X97270600Y-84054511D01*
X97270600Y-84054511D02*
X97199171Y-84197368D01*
X97199171Y-84197368D02*
X97199171Y-84411654D01*
X97199171Y-84411654D02*
X97270600Y-84554511D01*
X97270600Y-84554511D02*
X97342028Y-84625940D01*
X98199171Y-85125940D02*
X98199171Y-85697368D01*
X98699171Y-85340225D02*
X97413457Y-85340225D01*
X97413457Y-85340225D02*
X97270600Y-85411654D01*
X97270600Y-85411654D02*
X97199171Y-85554511D01*
X97199171Y-85554511D02*
X97199171Y-85697368D01*
X97770600Y-86197368D02*
X97770600Y-87340226D01*
D12*
X140694819Y-83333333D02*
X141409104Y-83333333D01*
X141409104Y-83333333D02*
X141551961Y-83380952D01*
X141551961Y-83380952D02*
X141647200Y-83476190D01*
X141647200Y-83476190D02*
X141694819Y-83619047D01*
X141694819Y-83619047D02*
X141694819Y-83714285D01*
X141694819Y-82333333D02*
X141694819Y-82904761D01*
X141694819Y-82619047D02*
X140694819Y-82619047D01*
X140694819Y-82619047D02*
X140837676Y-82714285D01*
X140837676Y-82714285D02*
X140932914Y-82809523D01*
X140932914Y-82809523D02*
X140980533Y-82904761D01*
X118870833Y-67634819D02*
X118537500Y-67158628D01*
X118299405Y-67634819D02*
X118299405Y-66634819D01*
X118299405Y-66634819D02*
X118680357Y-66634819D01*
X118680357Y-66634819D02*
X118775595Y-66682438D01*
X118775595Y-66682438D02*
X118823214Y-66730057D01*
X118823214Y-66730057D02*
X118870833Y-66825295D01*
X118870833Y-66825295D02*
X118870833Y-66968152D01*
X118870833Y-66968152D02*
X118823214Y-67063390D01*
X118823214Y-67063390D02*
X118775595Y-67111009D01*
X118775595Y-67111009D02*
X118680357Y-67158628D01*
X118680357Y-67158628D02*
X118299405Y-67158628D01*
X119251786Y-66730057D02*
X119299405Y-66682438D01*
X119299405Y-66682438D02*
X119394643Y-66634819D01*
X119394643Y-66634819D02*
X119632738Y-66634819D01*
X119632738Y-66634819D02*
X119727976Y-66682438D01*
X119727976Y-66682438D02*
X119775595Y-66730057D01*
X119775595Y-66730057D02*
X119823214Y-66825295D01*
X119823214Y-66825295D02*
X119823214Y-66920533D01*
X119823214Y-66920533D02*
X119775595Y-67063390D01*
X119775595Y-67063390D02*
X119204167Y-67634819D01*
X119204167Y-67634819D02*
X119823214Y-67634819D01*
X126833333Y-87134819D02*
X126500000Y-86658628D01*
X126261905Y-87134819D02*
X126261905Y-86134819D01*
X126261905Y-86134819D02*
X126642857Y-86134819D01*
X126642857Y-86134819D02*
X126738095Y-86182438D01*
X126738095Y-86182438D02*
X126785714Y-86230057D01*
X126785714Y-86230057D02*
X126833333Y-86325295D01*
X126833333Y-86325295D02*
X126833333Y-86468152D01*
X126833333Y-86468152D02*
X126785714Y-86563390D01*
X126785714Y-86563390D02*
X126738095Y-86611009D01*
X126738095Y-86611009D02*
X126642857Y-86658628D01*
X126642857Y-86658628D02*
X126261905Y-86658628D01*
X127785714Y-87134819D02*
X127214286Y-87134819D01*
X127500000Y-87134819D02*
X127500000Y-86134819D01*
X127500000Y-86134819D02*
X127404762Y-86277676D01*
X127404762Y-86277676D02*
X127309524Y-86372914D01*
X127309524Y-86372914D02*
X127214286Y-86420533D01*
X110409819Y-84333333D02*
X111124104Y-84333333D01*
X111124104Y-84333333D02*
X111266961Y-84380952D01*
X111266961Y-84380952D02*
X111362200Y-84476190D01*
X111362200Y-84476190D02*
X111409819Y-84619047D01*
X111409819Y-84619047D02*
X111409819Y-84714285D01*
X110409819Y-83952380D02*
X110409819Y-83333333D01*
X110409819Y-83333333D02*
X110790771Y-83666666D01*
X110790771Y-83666666D02*
X110790771Y-83523809D01*
X110790771Y-83523809D02*
X110838390Y-83428571D01*
X110838390Y-83428571D02*
X110886009Y-83380952D01*
X110886009Y-83380952D02*
X110981247Y-83333333D01*
X110981247Y-83333333D02*
X111219342Y-83333333D01*
X111219342Y-83333333D02*
X111314580Y-83380952D01*
X111314580Y-83380952D02*
X111362200Y-83428571D01*
X111362200Y-83428571D02*
X111409819Y-83523809D01*
X111409819Y-83523809D02*
X111409819Y-83809523D01*
X111409819Y-83809523D02*
X111362200Y-83904761D01*
X111362200Y-83904761D02*
X111314580Y-83952380D01*
X110214819Y-66333333D02*
X110929104Y-66333333D01*
X110929104Y-66333333D02*
X111071961Y-66380952D01*
X111071961Y-66380952D02*
X111167200Y-66476190D01*
X111167200Y-66476190D02*
X111214819Y-66619047D01*
X111214819Y-66619047D02*
X111214819Y-66714285D01*
X110310057Y-65904761D02*
X110262438Y-65857142D01*
X110262438Y-65857142D02*
X110214819Y-65761904D01*
X110214819Y-65761904D02*
X110214819Y-65523809D01*
X110214819Y-65523809D02*
X110262438Y-65428571D01*
X110262438Y-65428571D02*
X110310057Y-65380952D01*
X110310057Y-65380952D02*
X110405295Y-65333333D01*
X110405295Y-65333333D02*
X110500533Y-65333333D01*
X110500533Y-65333333D02*
X110643390Y-65380952D01*
X110643390Y-65380952D02*
X111214819Y-65952380D01*
X111214819Y-65952380D02*
X111214819Y-65333333D01*
X137857142Y-72509580D02*
X137809523Y-72557200D01*
X137809523Y-72557200D02*
X137666666Y-72604819D01*
X137666666Y-72604819D02*
X137571428Y-72604819D01*
X137571428Y-72604819D02*
X137428571Y-72557200D01*
X137428571Y-72557200D02*
X137333333Y-72461961D01*
X137333333Y-72461961D02*
X137285714Y-72366723D01*
X137285714Y-72366723D02*
X137238095Y-72176247D01*
X137238095Y-72176247D02*
X137238095Y-72033390D01*
X137238095Y-72033390D02*
X137285714Y-71842914D01*
X137285714Y-71842914D02*
X137333333Y-71747676D01*
X137333333Y-71747676D02*
X137428571Y-71652438D01*
X137428571Y-71652438D02*
X137571428Y-71604819D01*
X137571428Y-71604819D02*
X137666666Y-71604819D01*
X137666666Y-71604819D02*
X137809523Y-71652438D01*
X137809523Y-71652438D02*
X137857142Y-71700057D01*
X138809523Y-72604819D02*
X138238095Y-72604819D01*
X138523809Y-72604819D02*
X138523809Y-71604819D01*
X138523809Y-71604819D02*
X138428571Y-71747676D01*
X138428571Y-71747676D02*
X138333333Y-71842914D01*
X138333333Y-71842914D02*
X138238095Y-71890533D01*
X139761904Y-72604819D02*
X139190476Y-72604819D01*
X139476190Y-72604819D02*
X139476190Y-71604819D01*
X139476190Y-71604819D02*
X139380952Y-71747676D01*
X139380952Y-71747676D02*
X139285714Y-71842914D01*
X139285714Y-71842914D02*
X139190476Y-71890533D01*
X137857142Y-76509580D02*
X137809523Y-76557200D01*
X137809523Y-76557200D02*
X137666666Y-76604819D01*
X137666666Y-76604819D02*
X137571428Y-76604819D01*
X137571428Y-76604819D02*
X137428571Y-76557200D01*
X137428571Y-76557200D02*
X137333333Y-76461961D01*
X137333333Y-76461961D02*
X137285714Y-76366723D01*
X137285714Y-76366723D02*
X137238095Y-76176247D01*
X137238095Y-76176247D02*
X137238095Y-76033390D01*
X137238095Y-76033390D02*
X137285714Y-75842914D01*
X137285714Y-75842914D02*
X137333333Y-75747676D01*
X137333333Y-75747676D02*
X137428571Y-75652438D01*
X137428571Y-75652438D02*
X137571428Y-75604819D01*
X137571428Y-75604819D02*
X137666666Y-75604819D01*
X137666666Y-75604819D02*
X137809523Y-75652438D01*
X137809523Y-75652438D02*
X137857142Y-75700057D01*
X138809523Y-76604819D02*
X138238095Y-76604819D01*
X138523809Y-76604819D02*
X138523809Y-75604819D01*
X138523809Y-75604819D02*
X138428571Y-75747676D01*
X138428571Y-75747676D02*
X138333333Y-75842914D01*
X138333333Y-75842914D02*
X138238095Y-75890533D01*
X139428571Y-75604819D02*
X139523809Y-75604819D01*
X139523809Y-75604819D02*
X139619047Y-75652438D01*
X139619047Y-75652438D02*
X139666666Y-75700057D01*
X139666666Y-75700057D02*
X139714285Y-75795295D01*
X139714285Y-75795295D02*
X139761904Y-75985771D01*
X139761904Y-75985771D02*
X139761904Y-76223866D01*
X139761904Y-76223866D02*
X139714285Y-76414342D01*
X139714285Y-76414342D02*
X139666666Y-76509580D01*
X139666666Y-76509580D02*
X139619047Y-76557200D01*
X139619047Y-76557200D02*
X139523809Y-76604819D01*
X139523809Y-76604819D02*
X139428571Y-76604819D01*
X139428571Y-76604819D02*
X139333333Y-76557200D01*
X139333333Y-76557200D02*
X139285714Y-76509580D01*
X139285714Y-76509580D02*
X139238095Y-76414342D01*
X139238095Y-76414342D02*
X139190476Y-76223866D01*
X139190476Y-76223866D02*
X139190476Y-75985771D01*
X139190476Y-75985771D02*
X139238095Y-75795295D01*
X139238095Y-75795295D02*
X139285714Y-75700057D01*
X139285714Y-75700057D02*
X139333333Y-75652438D01*
X139333333Y-75652438D02*
X139428571Y-75604819D01*
X138333333Y-68009580D02*
X138285714Y-68057200D01*
X138285714Y-68057200D02*
X138142857Y-68104819D01*
X138142857Y-68104819D02*
X138047619Y-68104819D01*
X138047619Y-68104819D02*
X137904762Y-68057200D01*
X137904762Y-68057200D02*
X137809524Y-67961961D01*
X137809524Y-67961961D02*
X137761905Y-67866723D01*
X137761905Y-67866723D02*
X137714286Y-67676247D01*
X137714286Y-67676247D02*
X137714286Y-67533390D01*
X137714286Y-67533390D02*
X137761905Y-67342914D01*
X137761905Y-67342914D02*
X137809524Y-67247676D01*
X137809524Y-67247676D02*
X137904762Y-67152438D01*
X137904762Y-67152438D02*
X138047619Y-67104819D01*
X138047619Y-67104819D02*
X138142857Y-67104819D01*
X138142857Y-67104819D02*
X138285714Y-67152438D01*
X138285714Y-67152438D02*
X138333333Y-67200057D01*
X138809524Y-68104819D02*
X139000000Y-68104819D01*
X139000000Y-68104819D02*
X139095238Y-68057200D01*
X139095238Y-68057200D02*
X139142857Y-68009580D01*
X139142857Y-68009580D02*
X139238095Y-67866723D01*
X139238095Y-67866723D02*
X139285714Y-67676247D01*
X139285714Y-67676247D02*
X139285714Y-67295295D01*
X139285714Y-67295295D02*
X139238095Y-67200057D01*
X139238095Y-67200057D02*
X139190476Y-67152438D01*
X139190476Y-67152438D02*
X139095238Y-67104819D01*
X139095238Y-67104819D02*
X138904762Y-67104819D01*
X138904762Y-67104819D02*
X138809524Y-67152438D01*
X138809524Y-67152438D02*
X138761905Y-67200057D01*
X138761905Y-67200057D02*
X138714286Y-67295295D01*
X138714286Y-67295295D02*
X138714286Y-67533390D01*
X138714286Y-67533390D02*
X138761905Y-67628628D01*
X138761905Y-67628628D02*
X138809524Y-67676247D01*
X138809524Y-67676247D02*
X138904762Y-67723866D01*
X138904762Y-67723866D02*
X139095238Y-67723866D01*
X139095238Y-67723866D02*
X139190476Y-67676247D01*
X139190476Y-67676247D02*
X139238095Y-67628628D01*
X139238095Y-67628628D02*
X139285714Y-67533390D01*
X118833333Y-76009580D02*
X118785714Y-76057200D01*
X118785714Y-76057200D02*
X118642857Y-76104819D01*
X118642857Y-76104819D02*
X118547619Y-76104819D01*
X118547619Y-76104819D02*
X118404762Y-76057200D01*
X118404762Y-76057200D02*
X118309524Y-75961961D01*
X118309524Y-75961961D02*
X118261905Y-75866723D01*
X118261905Y-75866723D02*
X118214286Y-75676247D01*
X118214286Y-75676247D02*
X118214286Y-75533390D01*
X118214286Y-75533390D02*
X118261905Y-75342914D01*
X118261905Y-75342914D02*
X118309524Y-75247676D01*
X118309524Y-75247676D02*
X118404762Y-75152438D01*
X118404762Y-75152438D02*
X118547619Y-75104819D01*
X118547619Y-75104819D02*
X118642857Y-75104819D01*
X118642857Y-75104819D02*
X118785714Y-75152438D01*
X118785714Y-75152438D02*
X118833333Y-75200057D01*
X119404762Y-75533390D02*
X119309524Y-75485771D01*
X119309524Y-75485771D02*
X119261905Y-75438152D01*
X119261905Y-75438152D02*
X119214286Y-75342914D01*
X119214286Y-75342914D02*
X119214286Y-75295295D01*
X119214286Y-75295295D02*
X119261905Y-75200057D01*
X119261905Y-75200057D02*
X119309524Y-75152438D01*
X119309524Y-75152438D02*
X119404762Y-75104819D01*
X119404762Y-75104819D02*
X119595238Y-75104819D01*
X119595238Y-75104819D02*
X119690476Y-75152438D01*
X119690476Y-75152438D02*
X119738095Y-75200057D01*
X119738095Y-75200057D02*
X119785714Y-75295295D01*
X119785714Y-75295295D02*
X119785714Y-75342914D01*
X119785714Y-75342914D02*
X119738095Y-75438152D01*
X119738095Y-75438152D02*
X119690476Y-75485771D01*
X119690476Y-75485771D02*
X119595238Y-75533390D01*
X119595238Y-75533390D02*
X119404762Y-75533390D01*
X119404762Y-75533390D02*
X119309524Y-75581009D01*
X119309524Y-75581009D02*
X119261905Y-75628628D01*
X119261905Y-75628628D02*
X119214286Y-75723866D01*
X119214286Y-75723866D02*
X119214286Y-75914342D01*
X119214286Y-75914342D02*
X119261905Y-76009580D01*
X119261905Y-76009580D02*
X119309524Y-76057200D01*
X119309524Y-76057200D02*
X119404762Y-76104819D01*
X119404762Y-76104819D02*
X119595238Y-76104819D01*
X119595238Y-76104819D02*
X119690476Y-76057200D01*
X119690476Y-76057200D02*
X119738095Y-76009580D01*
X119738095Y-76009580D02*
X119785714Y-75914342D01*
X119785714Y-75914342D02*
X119785714Y-75723866D01*
X119785714Y-75723866D02*
X119738095Y-75628628D01*
X119738095Y-75628628D02*
X119690476Y-75581009D01*
X119690476Y-75581009D02*
X119595238Y-75533390D01*
X124209580Y-73666666D02*
X124257200Y-73714285D01*
X124257200Y-73714285D02*
X124304819Y-73857142D01*
X124304819Y-73857142D02*
X124304819Y-73952380D01*
X124304819Y-73952380D02*
X124257200Y-74095237D01*
X124257200Y-74095237D02*
X124161961Y-74190475D01*
X124161961Y-74190475D02*
X124066723Y-74238094D01*
X124066723Y-74238094D02*
X123876247Y-74285713D01*
X123876247Y-74285713D02*
X123733390Y-74285713D01*
X123733390Y-74285713D02*
X123542914Y-74238094D01*
X123542914Y-74238094D02*
X123447676Y-74190475D01*
X123447676Y-74190475D02*
X123352438Y-74095237D01*
X123352438Y-74095237D02*
X123304819Y-73952380D01*
X123304819Y-73952380D02*
X123304819Y-73857142D01*
X123304819Y-73857142D02*
X123352438Y-73714285D01*
X123352438Y-73714285D02*
X123400057Y-73666666D01*
X123304819Y-73333332D02*
X123304819Y-72666666D01*
X123304819Y-72666666D02*
X124304819Y-73095237D01*
X128358333Y-67509580D02*
X128310714Y-67557200D01*
X128310714Y-67557200D02*
X128167857Y-67604819D01*
X128167857Y-67604819D02*
X128072619Y-67604819D01*
X128072619Y-67604819D02*
X127929762Y-67557200D01*
X127929762Y-67557200D02*
X127834524Y-67461961D01*
X127834524Y-67461961D02*
X127786905Y-67366723D01*
X127786905Y-67366723D02*
X127739286Y-67176247D01*
X127739286Y-67176247D02*
X127739286Y-67033390D01*
X127739286Y-67033390D02*
X127786905Y-66842914D01*
X127786905Y-66842914D02*
X127834524Y-66747676D01*
X127834524Y-66747676D02*
X127929762Y-66652438D01*
X127929762Y-66652438D02*
X128072619Y-66604819D01*
X128072619Y-66604819D02*
X128167857Y-66604819D01*
X128167857Y-66604819D02*
X128310714Y-66652438D01*
X128310714Y-66652438D02*
X128358333Y-66700057D01*
X129215476Y-66604819D02*
X129025000Y-66604819D01*
X129025000Y-66604819D02*
X128929762Y-66652438D01*
X128929762Y-66652438D02*
X128882143Y-66700057D01*
X128882143Y-66700057D02*
X128786905Y-66842914D01*
X128786905Y-66842914D02*
X128739286Y-67033390D01*
X128739286Y-67033390D02*
X128739286Y-67414342D01*
X128739286Y-67414342D02*
X128786905Y-67509580D01*
X128786905Y-67509580D02*
X128834524Y-67557200D01*
X128834524Y-67557200D02*
X128929762Y-67604819D01*
X128929762Y-67604819D02*
X129120238Y-67604819D01*
X129120238Y-67604819D02*
X129215476Y-67557200D01*
X129215476Y-67557200D02*
X129263095Y-67509580D01*
X129263095Y-67509580D02*
X129310714Y-67414342D01*
X129310714Y-67414342D02*
X129310714Y-67176247D01*
X129310714Y-67176247D02*
X129263095Y-67081009D01*
X129263095Y-67081009D02*
X129215476Y-67033390D01*
X129215476Y-67033390D02*
X129120238Y-66985771D01*
X129120238Y-66985771D02*
X128929762Y-66985771D01*
X128929762Y-66985771D02*
X128834524Y-67033390D01*
X128834524Y-67033390D02*
X128786905Y-67081009D01*
X128786905Y-67081009D02*
X128739286Y-67176247D01*
X118833333Y-63509580D02*
X118785714Y-63557200D01*
X118785714Y-63557200D02*
X118642857Y-63604819D01*
X118642857Y-63604819D02*
X118547619Y-63604819D01*
X118547619Y-63604819D02*
X118404762Y-63557200D01*
X118404762Y-63557200D02*
X118309524Y-63461961D01*
X118309524Y-63461961D02*
X118261905Y-63366723D01*
X118261905Y-63366723D02*
X118214286Y-63176247D01*
X118214286Y-63176247D02*
X118214286Y-63033390D01*
X118214286Y-63033390D02*
X118261905Y-62842914D01*
X118261905Y-62842914D02*
X118309524Y-62747676D01*
X118309524Y-62747676D02*
X118404762Y-62652438D01*
X118404762Y-62652438D02*
X118547619Y-62604819D01*
X118547619Y-62604819D02*
X118642857Y-62604819D01*
X118642857Y-62604819D02*
X118785714Y-62652438D01*
X118785714Y-62652438D02*
X118833333Y-62700057D01*
X119690476Y-62938152D02*
X119690476Y-63604819D01*
X119452381Y-62557200D02*
X119214286Y-63271485D01*
X119214286Y-63271485D02*
X119833333Y-63271485D01*
X118858333Y-87009580D02*
X118810714Y-87057200D01*
X118810714Y-87057200D02*
X118667857Y-87104819D01*
X118667857Y-87104819D02*
X118572619Y-87104819D01*
X118572619Y-87104819D02*
X118429762Y-87057200D01*
X118429762Y-87057200D02*
X118334524Y-86961961D01*
X118334524Y-86961961D02*
X118286905Y-86866723D01*
X118286905Y-86866723D02*
X118239286Y-86676247D01*
X118239286Y-86676247D02*
X118239286Y-86533390D01*
X118239286Y-86533390D02*
X118286905Y-86342914D01*
X118286905Y-86342914D02*
X118334524Y-86247676D01*
X118334524Y-86247676D02*
X118429762Y-86152438D01*
X118429762Y-86152438D02*
X118572619Y-86104819D01*
X118572619Y-86104819D02*
X118667857Y-86104819D01*
X118667857Y-86104819D02*
X118810714Y-86152438D01*
X118810714Y-86152438D02*
X118858333Y-86200057D01*
X119191667Y-86104819D02*
X119810714Y-86104819D01*
X119810714Y-86104819D02*
X119477381Y-86485771D01*
X119477381Y-86485771D02*
X119620238Y-86485771D01*
X119620238Y-86485771D02*
X119715476Y-86533390D01*
X119715476Y-86533390D02*
X119763095Y-86581009D01*
X119763095Y-86581009D02*
X119810714Y-86676247D01*
X119810714Y-86676247D02*
X119810714Y-86914342D01*
X119810714Y-86914342D02*
X119763095Y-87009580D01*
X119763095Y-87009580D02*
X119715476Y-87057200D01*
X119715476Y-87057200D02*
X119620238Y-87104819D01*
X119620238Y-87104819D02*
X119334524Y-87104819D01*
X119334524Y-87104819D02*
X119239286Y-87057200D01*
X119239286Y-87057200D02*
X119191667Y-87009580D01*
X118858333Y-83009580D02*
X118810714Y-83057200D01*
X118810714Y-83057200D02*
X118667857Y-83104819D01*
X118667857Y-83104819D02*
X118572619Y-83104819D01*
X118572619Y-83104819D02*
X118429762Y-83057200D01*
X118429762Y-83057200D02*
X118334524Y-82961961D01*
X118334524Y-82961961D02*
X118286905Y-82866723D01*
X118286905Y-82866723D02*
X118239286Y-82676247D01*
X118239286Y-82676247D02*
X118239286Y-82533390D01*
X118239286Y-82533390D02*
X118286905Y-82342914D01*
X118286905Y-82342914D02*
X118334524Y-82247676D01*
X118334524Y-82247676D02*
X118429762Y-82152438D01*
X118429762Y-82152438D02*
X118572619Y-82104819D01*
X118572619Y-82104819D02*
X118667857Y-82104819D01*
X118667857Y-82104819D02*
X118810714Y-82152438D01*
X118810714Y-82152438D02*
X118858333Y-82200057D01*
X119239286Y-82200057D02*
X119286905Y-82152438D01*
X119286905Y-82152438D02*
X119382143Y-82104819D01*
X119382143Y-82104819D02*
X119620238Y-82104819D01*
X119620238Y-82104819D02*
X119715476Y-82152438D01*
X119715476Y-82152438D02*
X119763095Y-82200057D01*
X119763095Y-82200057D02*
X119810714Y-82295295D01*
X119810714Y-82295295D02*
X119810714Y-82390533D01*
X119810714Y-82390533D02*
X119763095Y-82533390D01*
X119763095Y-82533390D02*
X119191667Y-83104819D01*
X119191667Y-83104819D02*
X119810714Y-83104819D01*
X140694819Y-65833333D02*
X141409104Y-65833333D01*
X141409104Y-65833333D02*
X141551961Y-65880952D01*
X141551961Y-65880952D02*
X141647200Y-65976190D01*
X141647200Y-65976190D02*
X141694819Y-66119047D01*
X141694819Y-66119047D02*
X141694819Y-66214285D01*
X141028152Y-64928571D02*
X141694819Y-64928571D01*
X140647200Y-65166666D02*
X141361485Y-65404761D01*
X141361485Y-65404761D02*
X141361485Y-64785714D01*
D13*
%TO.C,U1*%
X126650001Y-80299998D02*
X130349999Y-80299998D01*
X124999999Y-73599999D02*
X130349999Y-73599999D01*
D14*
%TO.C,J1*%
X151660000Y-93300000D02*
X152400000Y-93300000D01*
X152400000Y-93300000D02*
X152400000Y-92800000D01*
X142239000Y-93060000D02*
X152160000Y-93060000D01*
X142239000Y-93060000D02*
X142239000Y-72939000D01*
X145199000Y-93060000D02*
X145199000Y-72939000D01*
X150100000Y-93060000D02*
X150100000Y-72939000D01*
X151600000Y-93060000D02*
X151600000Y-72939000D01*
X152160000Y-93060000D02*
X152160000Y-72939000D01*
X148523000Y-86727000D02*
X148569000Y-86774000D01*
X148739000Y-86534000D02*
X148774000Y-86569000D01*
X146225000Y-84430000D02*
X146261000Y-84465000D01*
X146431000Y-84225000D02*
X146477000Y-84272000D01*
X148523000Y-81727000D02*
X148569000Y-81774000D01*
X148739000Y-81534000D02*
X148774000Y-81569000D01*
X146225000Y-79430000D02*
X146261000Y-79465000D01*
X146431000Y-79225000D02*
X146477000Y-79272000D01*
X148523000Y-76727000D02*
X148569000Y-76774000D01*
X148739000Y-76534000D02*
X148774000Y-76569000D01*
X146225000Y-74430000D02*
X146261000Y-74465000D01*
X146431000Y-74225000D02*
X146477000Y-74272000D01*
X142239000Y-72939000D02*
X152160000Y-72939000D01*
X148183042Y-92035427D02*
G75*
G02*
X146816000Y-92035000I-683041J1535420D01*
G01*
X145964573Y-91183042D02*
G75*
G02*
X145965000Y-89816000I1535420J683041D01*
G01*
X149180253Y-90471195D02*
G75*
G02*
X149035000Y-91184000I-1680254J-28806D01*
G01*
X149034756Y-89816682D02*
G75*
G02*
X149180000Y-90500000I-1534756J-683318D01*
G01*
X146816958Y-88964573D02*
G75*
G02*
X148184000Y-88965000I683042J-1535427D01*
G01*
X149180000Y-85500000D02*
G75*
G02*
X145820000Y-85500000I-1680000J0D01*
G01*
X145820000Y-85500000D02*
G75*
G02*
X149180000Y-85500000I1680000J0D01*
G01*
X149180000Y-80500000D02*
G75*
G02*
X145820000Y-80500000I-1680000J0D01*
G01*
X145820000Y-80500000D02*
G75*
G02*
X149180000Y-80500000I1680000J0D01*
G01*
X149180000Y-75500000D02*
G75*
G02*
X145820000Y-75500000I-1680000J0D01*
G01*
X145820000Y-75500000D02*
G75*
G02*
X149180000Y-75500000I1680000J0D01*
G01*
%TO.C,R2*%
X118310436Y-68090000D02*
X119764564Y-68090000D01*
X118310436Y-69910000D02*
X119764564Y-69910000D01*
%TO.C,R1*%
X126272936Y-87590000D02*
X127727064Y-87590000D01*
X126272936Y-89410000D02*
X127727064Y-89410000D01*
%TO.C,J3*%
X100535000Y-78700000D02*
X99795000Y-78700000D01*
X99795000Y-78700000D02*
X99795000Y-79200000D01*
X109956000Y-78940000D02*
X100035000Y-78940000D01*
X109956000Y-78940000D02*
X109956000Y-89060000D01*
X106996000Y-78940000D02*
X106996000Y-89060000D01*
X102095000Y-78940000D02*
X102095000Y-89060000D01*
X100595000Y-78940000D02*
X100595000Y-89060000D01*
X100035000Y-78940000D02*
X100035000Y-89060000D01*
X103672000Y-85273000D02*
X103626000Y-85226000D01*
X103456000Y-85466000D02*
X103421000Y-85431000D01*
X105970000Y-87570000D02*
X105934000Y-87535000D01*
X105764000Y-87775000D02*
X105718000Y-87728000D01*
X109956000Y-89060000D02*
X100035000Y-89060000D01*
X104011958Y-79964573D02*
G75*
G02*
X105379000Y-79965000I683041J-1535420D01*
G01*
X106230427Y-80816958D02*
G75*
G02*
X106230000Y-82184000I-1535420J-683041D01*
G01*
X103014747Y-81528805D02*
G75*
G02*
X103160000Y-80816000I1680254J28806D01*
G01*
X103160244Y-82183318D02*
G75*
G02*
X103015000Y-81500000I1534756J683318D01*
G01*
X105378042Y-83035427D02*
G75*
G02*
X104011000Y-83035000I-683042J1535427D01*
G01*
X106375000Y-86500000D02*
G75*
G02*
X103015000Y-86500000I-1680000J0D01*
G01*
X103015000Y-86500000D02*
G75*
G02*
X106375000Y-86500000I1680000J0D01*
G01*
%TO.C,J2*%
X100340000Y-60700000D02*
X99600000Y-60700000D01*
X99600000Y-60700000D02*
X99600000Y-61200000D01*
X109761000Y-60940000D02*
X99840000Y-60940000D01*
X109761000Y-60940000D02*
X109761000Y-71060000D01*
X106801000Y-60940000D02*
X106801000Y-71060000D01*
X101900000Y-60940000D02*
X101900000Y-71060000D01*
X100400000Y-60940000D02*
X100400000Y-71060000D01*
X99840000Y-60940000D02*
X99840000Y-71060000D01*
X103477000Y-67273000D02*
X103431000Y-67226000D01*
X103261000Y-67466000D02*
X103226000Y-67431000D01*
X105775000Y-69570000D02*
X105739000Y-69535000D01*
X105569000Y-69775000D02*
X105523000Y-69728000D01*
X109761000Y-71060000D02*
X99840000Y-71060000D01*
X103816958Y-61964573D02*
G75*
G02*
X105184000Y-61965000I683041J-1535420D01*
G01*
X106035427Y-62816958D02*
G75*
G02*
X106035000Y-64184000I-1535420J-683041D01*
G01*
X102819747Y-63528805D02*
G75*
G02*
X102965000Y-62816000I1680254J28806D01*
G01*
X102965244Y-64183318D02*
G75*
G02*
X102820000Y-63500000I1534756J683318D01*
G01*
X105183042Y-65035427D02*
G75*
G02*
X103816000Y-65035000I-683042J1535427D01*
G01*
X106180000Y-68500000D02*
G75*
G02*
X102820000Y-68500000I-1680000J0D01*
G01*
X102820000Y-68500000D02*
G75*
G02*
X106180000Y-68500000I1680000J0D01*
G01*
%TO.C,C12*%
X123090000Y-84288748D02*
X123090000Y-85711252D01*
X124910000Y-84288748D02*
X124910000Y-85711252D01*
%TO.C,C11*%
X137788748Y-73090000D02*
X139211252Y-73090000D01*
X137788748Y-74910000D02*
X139211252Y-74910000D01*
%TO.C,C10*%
X137788748Y-77090000D02*
X139211252Y-77090000D01*
X137788748Y-78910000D02*
X139211252Y-78910000D01*
%TO.C,C9*%
X137788748Y-68590000D02*
X139211252Y-68590000D01*
X137788748Y-70410000D02*
X139211252Y-70410000D01*
%TO.C,C8*%
X118288748Y-76590000D02*
X119711252Y-76590000D01*
X118288748Y-78410000D02*
X119711252Y-78410000D01*
%TO.C,C7*%
X122910000Y-72788748D02*
X122910000Y-74211252D01*
X121090000Y-72788748D02*
X121090000Y-74211252D01*
%TO.C,C6*%
X127813748Y-68090000D02*
X129236252Y-68090000D01*
X127813748Y-69910000D02*
X129236252Y-69910000D01*
%TO.C,C5*%
X129236252Y-65910000D02*
X127813748Y-65910000D01*
X129236252Y-64090000D02*
X127813748Y-64090000D01*
%TO.C,C4*%
X118288748Y-64090000D02*
X119711252Y-64090000D01*
X118288748Y-65910000D02*
X119711252Y-65910000D01*
%TO.C,C3*%
X118313748Y-87590000D02*
X119736252Y-87590000D01*
X118313748Y-89410000D02*
X119736252Y-89410000D01*
%TO.C,C2*%
X118313748Y-85410000D02*
X119736252Y-85410000D01*
X118313748Y-83590000D02*
X119736252Y-83590000D01*
%TO.C,C1*%
X119736252Y-81910000D02*
X118313748Y-81910000D01*
X119736252Y-80090000D02*
X118313748Y-80090000D01*
%TO.C,J4*%
X151660000Y-70800000D02*
X152400000Y-70800000D01*
X152400000Y-70800000D02*
X152400000Y-70300000D01*
X142239000Y-70560000D02*
X152160000Y-70560000D01*
X142239000Y-70560000D02*
X142239000Y-60440000D01*
X145199000Y-70560000D02*
X145199000Y-60440000D01*
X150100000Y-70560000D02*
X150100000Y-60440000D01*
X151600000Y-70560000D02*
X151600000Y-60440000D01*
X152160000Y-70560000D02*
X152160000Y-60440000D01*
X148523000Y-64227000D02*
X148569000Y-64274000D01*
X148739000Y-64034000D02*
X148774000Y-64069000D01*
X146225000Y-61930000D02*
X146261000Y-61965000D01*
X146431000Y-61725000D02*
X146477000Y-61772000D01*
X142239000Y-60440000D02*
X152160000Y-60440000D01*
X148183042Y-69535427D02*
G75*
G02*
X146816000Y-69535000I-683041J1535420D01*
G01*
X145964573Y-68683042D02*
G75*
G02*
X145965000Y-67316000I1535420J683041D01*
G01*
X149180253Y-67971195D02*
G75*
G02*
X149035000Y-68684000I-1680254J-28806D01*
G01*
X149034756Y-67316682D02*
G75*
G02*
X149180000Y-68000000I-1534756J-683318D01*
G01*
X146816958Y-66464573D02*
G75*
G02*
X148184000Y-66465000I683042J-1535427D01*
G01*
X149180000Y-63000000D02*
G75*
G02*
X145820000Y-63000000I-1680000J0D01*
G01*
X145820000Y-63000000D02*
G75*
G02*
X149180000Y-63000000I1680000J0D01*
G01*
%TD*%
M02*
