%TF.GenerationSoftware,KiCad,Pcbnew,8.0.6*%
%TF.CreationDate,2025-11-11T21:27:36-08:00*%
%TF.ProjectId,I2S_Dac,4932535f-4461-4632-9e6b-696361645f70,rev?*%
%TF.SameCoordinates,Original*%
%TF.FileFunction,Paste,Top*%
%TF.FilePolarity,Positive*%
%FSLAX46Y46*%
G04 Gerber Fmt 4.6, Leading zero omitted, Abs format (unit mm)*
G04 Created by KiCad (PCBNEW 8.0.6) date 2025-11-11 21:27:36*
%MOMM*%
%LPD*%
G01*
G04 APERTURE LIST*
G04 Aperture macros list*
%AMRoundRect*
0 Rectangle with rounded corners*
0 $1 Rounding radius*
0 $2 $3 $4 $5 $6 $7 $8 $9 X,Y pos of 4 corners*
0 Add a 4 corners polygon primitive as box body*
4,1,4,$2,$3,$4,$5,$6,$7,$8,$9,$2,$3,0*
0 Add four circle primitives for the rounded corners*
1,1,$1+$1,$2,$3*
1,1,$1+$1,$4,$5*
1,1,$1+$1,$6,$7*
1,1,$1+$1,$8,$9*
0 Add four rect primitives between the rounded corners*
20,1,$1+$1,$2,$3,$4,$5,0*
20,1,$1+$1,$4,$5,$6,$7,0*
20,1,$1+$1,$6,$7,$8,$9,0*
20,1,$1+$1,$8,$9,$2,$3,0*%
G04 Aperture macros list end*
%ADD10O,1.400000X0.449999*%
%ADD11RoundRect,0.250000X-0.312500X-0.625000X0.312500X-0.625000X0.312500X0.625000X-0.312500X0.625000X0*%
%ADD12RoundRect,0.250000X-0.650000X0.325000X-0.650000X-0.325000X0.650000X-0.325000X0.650000X0.325000X0*%
%ADD13RoundRect,0.250000X-0.325000X-0.650000X0.325000X-0.650000X0.325000X0.650000X-0.325000X0.650000X0*%
%ADD14RoundRect,0.250000X0.325000X0.650000X-0.325000X0.650000X-0.325000X-0.650000X0.325000X-0.650000X0*%
G04 APERTURE END LIST*
D10*
%TO.C,U1*%
X125550001Y-74075002D03*
X125550001Y-74725003D03*
X125550001Y-75375002D03*
X125550001Y-76025003D03*
X125550001Y-76675002D03*
X125550001Y-77325003D03*
X125550001Y-77975002D03*
X125550001Y-78625003D03*
X125550001Y-79275002D03*
X125550001Y-79925003D03*
X131450002Y-79925003D03*
X131450002Y-79275002D03*
X131450002Y-78625003D03*
X131450002Y-77975002D03*
X131450002Y-77325003D03*
X131450002Y-76675002D03*
X131450002Y-76025003D03*
X131450002Y-75375002D03*
X131450002Y-74725003D03*
X131450002Y-74075002D03*
%TD*%
D11*
%TO.C,R2*%
X117575000Y-69000000D03*
X120500000Y-69000000D03*
%TD*%
%TO.C,R1*%
X125537500Y-88500000D03*
X128462500Y-88500000D03*
%TD*%
D12*
%TO.C,C12*%
X124000000Y-86475000D03*
X124000000Y-83525000D03*
%TD*%
D13*
%TO.C,C11*%
X137025000Y-74000000D03*
X139975000Y-74000000D03*
%TD*%
%TO.C,C10*%
X137025000Y-78000000D03*
X139975000Y-78000000D03*
%TD*%
%TO.C,C9*%
X137025000Y-69500000D03*
X139975000Y-69500000D03*
%TD*%
%TO.C,C8*%
X117525000Y-77500000D03*
X120475000Y-77500000D03*
%TD*%
D12*
%TO.C,C7*%
X122000000Y-72025000D03*
X122000000Y-74975000D03*
%TD*%
D13*
%TO.C,C6*%
X127050000Y-69000000D03*
X130000000Y-69000000D03*
%TD*%
D14*
%TO.C,C5*%
X130000000Y-65000000D03*
X127050000Y-65000000D03*
%TD*%
D13*
%TO.C,C4*%
X117525000Y-65000000D03*
X120475000Y-65000000D03*
%TD*%
%TO.C,C3*%
X117550000Y-88500000D03*
X120500000Y-88500000D03*
%TD*%
%TO.C,C2*%
X120500000Y-84500000D03*
X117550000Y-84500000D03*
%TD*%
D14*
%TO.C,C1*%
X120500000Y-81000000D03*
X117550000Y-81000000D03*
%TD*%
M02*
